<svg width="502" height="502" viewBox="0 0 502 502" fill="none" xmlns="http://www.w3.org/2000/svg">
<path d="M501.699 140.02V362.039C501.699 439.262 439.109 501.859 361.891 501.859H139.879C62.6602 501.859 0.0585938 439.262 0.0585938 362.039V140.02C0.0585938 62.8086 62.6602 0.210938 139.879 0.210938H361.891C439.109 0.210938 501.699 62.8086 501.699 140.02Z" fill="#81A6D4"/>
<path d="M252.68 305.301C221.328 306.309 195.601 280.59 196.621 249.23C197.551 220.789 220.629 197.699 249.078 196.77C280.441 195.75 306.16 221.48 305.141 252.84C304.219 281.281 281.129 304.371 252.68 305.301ZM252.109 163.262C202.738 162.578 162.43 202.891 163.109 252.262C163.75 299.602 202.301 338.16 249.648 338.809C299.031 339.488 339.34 299.18 338.66 249.809C338.012 202.461 299.449 163.91 252.109 163.262Z" fill="#032859"/>
<path d="M386.461 322.809C386.461 358.051 357.891 386.621 322.648 386.621H179.109C143.871 386.621 115.301 358.051 115.301 322.809V179.262C115.301 144.02 143.871 115.461 179.109 115.461H322.648C357.891 115.461 386.461 144.031 386.461 179.27V322.809ZM322.66 81.9609H179.109C125.379 81.9609 81.8086 125.531 81.8086 179.27V322.809C81.8086 376.539 125.371 420.109 179.109 420.109H322.648C376.391 420.109 419.961 376.539 419.961 322.809V179.262C419.961 125.531 376.391 81.9609 322.66 81.9609Z" fill="#032859"/>
<path d="M341.359 137.91C327.52 137.02 316.051 148.488 316.93 162.328C317.66 173.781 326.91 183.02 338.352 183.762C352.199 184.648 363.672 173.18 362.781 159.328C362.051 147.891 352.801 138.641 341.359 137.91Z" fill="#032859"/>
</svg>
