<svg width="44" height="44" viewBox="0 0 44 44" fill="none" xmlns="http://www.w3.org/2000/svg">
<mask id="mask0_136_2675" style="mask-type:luminance" maskUnits="userSpaceOnUse" x="0" y="0" width="44" height="44">
<path d="M0.0577087 0.407471H43.0577V43.4075H0.0577087V0.407471Z" fill="white"/>
</mask>
<g mask="url(#mask0_136_2675)">
<mask id="mask1_136_2675" style="mask-type:luminance" maskUnits="userSpaceOnUse" x="0" y="0" width="43" height="44">
<path d="M21.5814 1.50308C10.3537 1.50308 1.2204 10.6364 1.2204 21.864C1.2204 33.0904 10.3537 42.225 21.5814 42.225C32.809 42.225 41.9436 33.0904 41.9436 21.864C41.9436 10.6364 32.809 1.50308 21.5814 1.50308ZM21.5814 43.179C9.8288 43.179 0.266388 33.6179 0.266388 21.864C0.266388 10.1128 9.8288 0.549072 21.5814 0.549072C33.3352 0.549072 42.8963 10.1128 42.8963 21.864C42.8963 33.6179 33.3352 43.179 21.5814 43.179Z" fill="white"/>
</mask>
<g mask="url(#mask1_136_2675)">
<mask id="mask2_136_2675" style="mask-type:luminance" maskUnits="userSpaceOnUse" x="0" y="0" width="43" height="44">
<path d="M21.5814 1.50308C10.3537 1.50308 1.2204 10.6364 1.2204 21.864C1.2204 33.0904 10.3537 42.225 21.5814 42.225C32.809 42.225 41.9436 33.0904 41.9436 21.864C41.9436 10.6364 32.809 1.50308 21.5814 1.50308ZM21.5814 43.179C9.8288 43.179 0.266388 33.6179 0.266388 21.864C0.266388 10.1128 9.8288 0.549072 21.5814 0.549072C33.3352 0.549072 42.8963 10.1128 42.8963 21.864C42.8963 33.6179 33.3352 43.179 21.5814 43.179Z" fill="white"/>
</mask>
<g mask="url(#mask2_136_2675)">
<path d="M-20.4306 26.9607L26.6781 63.8745L63.5932 16.7671L16.4845 -20.1479L-20.4306 26.9607Z" fill="#032859"/>
</g>
</g>
</g>
<mask id="mask3_136_2675" style="mask-type:luminance" maskUnits="userSpaceOnUse" x="26" y="13" width="5" height="5">
<path d="M26.3631 13.8218H30.0584V17.5171H26.3631V13.8218Z" fill="white"/>
</mask>
<g mask="url(#mask3_136_2675)">
<mask id="mask4_136_2675" style="mask-type:luminance" maskUnits="userSpaceOnUse" x="26" y="13" width="5" height="5">
<path d="M30.0547 15.6262C30.0547 16.6065 29.2595 17.403 28.2792 17.403C27.299 17.403 26.5037 16.6065 26.5037 15.6262C26.5037 14.6447 27.299 13.8521 28.2792 13.8521C29.2595 13.8521 30.0547 14.6447 30.0547 15.6262Z" fill="white"/>
</mask>
<g mask="url(#mask4_136_2675)">
<mask id="mask5_136_2675" style="mask-type:luminance" maskUnits="userSpaceOnUse" x="26" y="13" width="5" height="5">
<path d="M30.0547 15.6262C30.0547 16.6065 29.2595 17.403 28.2792 17.403C27.299 17.403 26.5037 16.6065 26.5037 15.6262C26.5037 14.6447 27.299 13.8521 28.2792 13.8521C29.2595 13.8521 30.0547 14.6447 30.0547 15.6262Z" fill="white"/>
</mask>
<g mask="url(#mask5_136_2675)">
<path d="M24.7791 16.0513L28.7028 19.1273L31.7787 15.2036L27.8538 12.1277L24.7791 16.0513Z" fill="#032859"/>
</g>
</g>
</g>
<mask id="mask6_136_2675" style="mask-type:luminance" maskUnits="userSpaceOnUse" x="14" y="15" width="15" height="14">
<path d="M14.9411 15.5015H28.3786V28.939H14.9411V15.5015Z" fill="white"/>
</mask>
<g mask="url(#mask6_136_2675)">
<mask id="mask7_136_2675" style="mask-type:luminance" maskUnits="userSpaceOnUse" x="15" y="15" width="14" height="14">
<path d="M21.7282 26.346C19.4265 26.346 17.5605 24.4774 17.5605 22.177C17.5605 19.8753 19.4265 18.008 21.7282 18.008C24.0312 18.008 25.8972 19.8753 25.8972 22.177C25.8972 24.4774 24.0312 26.346 21.7282 26.346ZM21.7282 15.6262C18.1116 15.6262 15.1787 18.5591 15.1787 22.177C15.1787 25.7949 18.1116 28.7278 21.7282 28.7278C25.3461 28.7278 28.279 25.7949 28.279 22.177C28.279 18.5591 25.3461 15.6262 21.7282 15.6262Z" fill="white"/>
</mask>
<g mask="url(#mask7_136_2675)">
<mask id="mask8_136_2675" style="mask-type:luminance" maskUnits="userSpaceOnUse" x="15" y="15" width="14" height="14">
<path d="M21.7282 26.346C19.4265 26.346 17.5605 24.4774 17.5605 22.177C17.5605 19.8753 19.4265 18.008 21.7282 18.008C24.0312 18.008 25.8972 19.8753 25.8972 22.177C25.8972 24.4774 24.0312 26.346 21.7282 26.346ZM21.7282 15.6262C18.1116 15.6262 15.1787 18.5591 15.1787 22.177C15.1787 25.7949 18.1116 28.7278 21.7282 28.7278C25.3461 28.7278 28.279 25.7949 28.279 22.177C28.279 18.5591 25.3461 15.6262 21.7282 15.6262Z" fill="white"/>
</mask>
<g mask="url(#mask8_136_2675)">
<path d="M8.81815 23.7427L23.2949 35.0871L34.6394 20.6103L20.1626 9.26587L8.81815 23.7427Z" fill="#032859"/>
</g>
</g>
</g>
<mask id="mask9_136_2675" style="mask-type:luminance" maskUnits="userSpaceOnUse" x="8" y="9" width="27" height="26">
<path d="M8.89432 9.45459H34.4256V34.9858H8.89432V9.45459Z" fill="white"/>
</mask>
<g mask="url(#mask9_136_2675)">
<mask id="mask10_136_2675" style="mask-type:luminance" maskUnits="userSpaceOnUse" x="9" y="9" width="26" height="26">
<path d="M31.8339 27.552C31.8339 30.1647 29.7159 32.2814 27.1019 32.2814H16.3559C13.7419 32.2814 11.6226 30.1647 11.6226 27.552V16.8046C11.6226 14.1919 13.7419 12.0713 16.3559 12.0713H27.1019C29.7159 12.0713 31.8339 14.1919 31.8339 16.8046V27.552ZM27.0573 9.64233H16.4005C12.4204 9.64233 9.19357 12.8679 9.19357 16.8492V27.5048C9.19357 31.4861 12.4204 34.7143 16.4005 34.7143H27.0573C31.0374 34.7143 34.2642 31.4861 34.2642 27.5048V16.8492C34.2642 12.8679 31.0374 9.64233 27.0573 9.64233Z" fill="white"/>
</mask>
<g mask="url(#mask10_136_2675)">
<mask id="mask11_136_2675" style="mask-type:luminance" maskUnits="userSpaceOnUse" x="9" y="9" width="26" height="26">
<path d="M31.8339 27.552C31.8339 30.1647 29.7159 32.2814 27.1019 32.2814H16.3559C13.7419 32.2814 11.6226 30.1647 11.6226 27.552V16.8046C11.6226 14.1919 13.7419 12.0713 16.3559 12.0713H27.1019C29.7159 12.0713 31.8339 14.1919 31.8339 16.8046V27.552ZM27.0573 9.64233H16.4005C12.4204 9.64233 9.19357 12.8679 9.19357 16.8492V27.5048C9.19357 31.4861 12.4204 34.7143 16.4005 34.7143H27.0573C31.0374 34.7143 34.2642 31.4861 34.2642 27.5048V16.8492C34.2642 12.8679 31.0374 9.64233 27.0573 9.64233Z" fill="white"/>
</mask>
<g mask="url(#mask11_136_2675)">
<path d="M-2.97897 25.1755L24.7267 46.8855L46.4366 19.1812L18.731 -2.52881L-2.97897 25.1755Z" fill="#032859"/>
</g>
</g>
</g>
</svg>
