<svg width="503" height="502" viewBox="0 0 503 502" fill="none" xmlns="http://www.w3.org/2000/svg">
<path d="M502.141 140.699V361.379C502.141 438.961 439.238 501.859 361.66 501.859H122.969C55.3203 501.859 0.488281 447.02 0.488281 379.379V140.699C0.488281 63.1094 63.3906 0.210938 140.969 0.210938H361.66C439.238 0.210938 502.141 63.1094 502.141 140.699Z" fill="#81A6D4"/>
<path d="M145.781 112.328C164.219 112.328 179.16 127.301 179.16 145.711C179.16 164.16 164.219 179.121 145.781 179.121C127.289 179.121 112.379 164.16 112.379 145.711C112.379 127.301 127.289 112.328 145.781 112.328ZM116.949 204.449H174.59V389.738H116.949V204.449Z" fill="#032859"/>
<path d="M210.73 204.449H265.941V229.77H266.719C274.398 215.199 293.199 199.84 321.219 199.84C379.48 199.84 390.25 238.199 390.25 288.109V389.738H332.73V299.648C332.73 278.148 332.309 250.5 302.789 250.5C272.82 250.5 268.25 273.91 268.25 298.078V389.738H210.73V204.449Z" fill="#032859"/>
</svg>
