<svg width="43" height="44" viewBox="0 0 43 44" fill="none" xmlns="http://www.w3.org/2000/svg">
<path d="M21.5014 1.36976C10.1729 1.36976 0.95841 10.5823 0.95841 21.9075C0.95841 33.2313 10.1729 42.4452 21.5014 42.4452C32.8272 42.4452 42.0403 33.2313 42.0403 21.9075C42.0403 10.5823 32.8272 1.36976 21.5014 1.36976ZM21.5014 43.4075C9.64472 43.4075 3.05176e-05 33.7634 3.05176e-05 21.9075C3.05176e-05 10.0542 9.64472 0.407471 21.5014 0.407471C33.3553 0.407471 43 10.0542 43 21.9075C43 33.7634 33.3553 43.4075 21.5014 43.4075Z" fill="#032859"/>
<path d="M9.68445 34.1871V17.5025H14.5412V34.1871H9.68445ZM9.32175 12.1179C9.32175 11.3754 9.58649 10.7691 10.116 10.3019C10.6442 9.8333 11.3179 9.60034 12.1453 9.60034C12.9885 9.60034 13.6742 9.83727 14.1957 10.3151C14.7173 10.7929 14.978 11.3965 14.978 12.1179C14.978 12.8525 14.7133 13.4627 14.1825 13.9512C13.6464 14.4383 12.9686 14.6831 12.1453 14.6831C11.3285 14.6831 10.6547 14.4356 10.1226 13.9446C9.59046 13.4495 9.32175 12.8433 9.32175 12.1179Z" fill="#032859"/>
<path d="M33.7684 34.1869H28.9262V24.879C28.9262 22.1854 27.9532 20.8366 26.0153 20.8366C25.09 20.8366 24.3209 21.1953 23.708 21.9167C23.0938 22.6354 22.7854 23.554 22.7854 24.6685V34.1869H17.9128V17.5023H22.7854V20.1589H22.8463C24.0628 18.1152 25.8525 17.0959 28.218 17.0959C31.9191 17.0959 33.7684 19.3898 33.7684 23.9736V34.1869Z" fill="#032859"/>
</svg>
