<svg width="295" height="91" viewBox="0 0 295 91" fill="none" xmlns="http://www.w3.org/2000/svg">
<path d="M52.9739 51.306C51.8192 52.194 50.6837 52.4414 49.6056 52.0291C48.317 51.5343 47.2197 50.1198 46.9454 48.5911C46.8242 47.8996 46.1672 47.4429 45.4654 47.5634C44.7701 47.684 44.3108 48.3437 44.432 49.0351C44.8594 51.4328 46.5754 53.5896 48.687 54.3952C49.3185 54.6362 49.9756 54.7567 50.6263 54.7567C51.9468 54.7567 53.2865 54.2683 54.5304 53.3105C55.0854 52.8791 55.1875 52.0862 54.7601 51.528C54.3263 50.9761 53.5289 50.8746 52.9675 51.2996L52.9739 51.306Z" fill="#032859"/>
<path d="M36.7319 17.4582C36.1258 17.8198 35.9281 18.5937 36.2917 19.1963C37.0445 20.4459 37.1465 21.594 36.6043 22.609C35.9536 23.8269 34.4162 24.734 32.8533 24.8228C32.1515 24.8608 31.6093 25.4634 31.6539 26.1612C31.6922 26.8336 32.2536 27.3601 32.9298 27.3601C32.9553 27.3601 32.9808 27.3601 33.0064 27.3601C35.4496 27.2205 37.81 25.7933 38.8689 23.8015C39.8322 22 39.6919 19.9067 38.4862 17.9022C38.1226 17.2996 37.3443 17.103 36.7383 17.4646L36.7319 17.4582Z" fill="#032859"/>
<path d="M34.4801 29.7007C33.4467 30.0115 32.5663 30.8933 32.0751 32.1302C31.3096 34.0459 31.5712 36.3675 32.8088 38.4988C33.0448 38.9048 33.4722 39.1332 33.9188 39.1332C34.1357 39.1332 34.3526 39.0761 34.5567 38.9619C35.1691 38.613 35.3796 37.8391 35.0288 37.2302C34.1994 35.7966 33.9889 34.2425 34.4546 33.069C34.6779 32.5108 35.0032 32.2 35.2201 32.1302C35.8963 31.9272 36.2791 31.2231 36.075 30.5507C35.8708 29.8783 35.1563 29.4977 34.4865 29.7007H34.4801Z" fill="#032859"/>
<path d="M45.6121 37.2366C45.7142 38.797 46.4031 40.313 47.545 41.328C48.5147 42.197 49.7204 42.6347 51.0537 42.6347C51.6597 42.6347 52.2849 42.5459 52.9292 42.3619C53.6054 42.1653 53.9945 41.4675 53.8031 40.7888C53.6054 40.1164 52.8973 39.7295 52.2211 39.9198C50.9962 40.2686 49.9947 40.1101 49.2483 39.4377C48.4254 38.7019 47.9916 37.3825 48.1957 36.228C48.3042 35.6 47.9342 35.0037 47.3409 34.8071C47.0283 34.547 46.5881 34.4392 46.1671 34.5597C44.9423 34.9086 43.9471 34.75 43.1943 34.0776C42.3714 33.3418 41.9376 32.0224 42.1418 30.8679C42.263 30.1765 41.7973 29.5231 41.1083 29.3963C40.4066 29.2757 39.7559 29.7388 39.6283 30.4239C39.2711 32.4537 39.9983 34.6295 41.4911 35.9616C42.4607 36.8242 43.6664 37.2683 44.9997 37.2683C45.1975 37.2683 45.408 37.2429 45.6121 37.2239V37.2366Z" fill="#032859"/>
<path d="M61.4901 17.8388C54.9003 12.5802 47.0346 11.0261 38.7861 10.9373C32.2282 11.0769 25.7851 11.8952 20.2606 15.7011C11.3551 21.8351 5.42871 29.5295 7.52112 41.2138C7.7444 42.4761 7.07457 44.0873 6.37923 45.2862C4.73975 48.1153 2.72388 50.7224 1.05888 53.5388C-0.676289 56.4757 -0.408358 57.4907 2.76854 58.4675C5.75406 59.381 6.74285 61.322 6.88319 64.075C6.95337 65.4451 6.98526 66.8216 6.99802 68.1918C7.07457 78.2459 7.45733 78.6138 17.4537 78.0493C21.511 77.8209 23.5204 79.2164 23.4758 83.1175C23.4311 86.9933 25.498 88.2048 28.7323 88.9787C38.5373 91.3131 48.0808 90.184 57.5923 87.3612C60.4184 86.5239 60.7501 85.3948 59.5635 82.8257C56.2144 75.569 56.6418 68.4963 61.3561 61.8548C63.0084 59.5269 64.7244 57.2369 66.3192 54.8709C74.1849 43.1612 72.0479 26.269 61.4901 17.8388ZM64.4373 45.4765C64.5713 45.9522 64.6479 46.4597 64.6479 46.9799C64.6479 50.0119 62.1727 52.4668 59.1234 52.4668C58.7534 52.4668 58.3898 52.4287 58.0389 52.359C57.7199 55.4418 55.098 57.8459 51.9084 57.8459C49.7968 57.8459 47.9341 56.7929 46.8304 55.1817C46.0266 55.5687 45.1208 55.7843 44.1703 55.7843C42.7541 55.7843 41.4399 55.3022 40.4001 54.4966C39.6665 54.8011 38.8627 54.9724 38.0142 54.9724C35.8963 54.9724 34.0272 53.9004 32.9172 52.2765C33.1851 52.3019 33.453 52.3209 33.721 52.3209C33.7337 52.3209 33.7528 52.3209 33.7656 52.3209C36.9935 52.3209 39.877 50.6146 41.8865 47.5063C42.2692 46.9164 42.097 46.1299 41.5037 45.7556C40.9104 45.375 40.1194 45.5463 39.743 46.1362C38.1992 48.5213 36.1323 49.7836 33.7656 49.7836C33.7528 49.7836 33.7401 49.7836 33.7337 49.7836C33.0958 49.7836 32.4579 49.6821 31.8327 49.5045C29.9189 48.4705 28.6175 46.4597 28.6175 44.1317C28.6175 43.4022 28.7451 42.7045 28.9875 42.0511C27.9094 42.4825 26.6973 42.7235 25.4215 42.7235C22.1744 42.7235 19.3611 41.1567 18.0023 38.8795C17.4601 38.6257 16.9561 38.3213 16.4841 37.9787C16.6499 37.9914 16.8158 38.0168 16.9816 38.0168C17.0263 38.0168 17.0646 38.0168 17.1092 38.0168C19.157 37.966 20.9304 36.8243 22.0978 34.8007C22.4487 34.1918 22.2382 33.4179 21.6258 33.069C21.0134 32.7201 20.2351 32.9295 19.8842 33.5384C19.157 34.8007 18.2001 35.4541 17.0454 35.4795C15.7568 35.5049 14.3597 34.75 13.4858 33.6019C13.3518 33.05 13.2753 32.4791 13.2753 31.8892C13.2753 28.6731 15.4187 25.9075 18.4872 24.6959C18.6211 23.5858 19.023 22.5455 19.6163 21.6257C20.1458 22.4377 20.8475 23.1228 21.6641 23.5604C22.3977 23.9537 23.1823 24.144 23.9861 24.144C24.9622 24.144 25.9765 23.8586 26.9653 23.294C27.5777 22.9452 27.7818 22.1649 27.431 21.5623C27.0801 20.9534 26.2954 20.744 25.6894 21.0993C24.6496 21.6955 23.7054 21.7716 22.8761 21.3276C22.251 20.9914 21.7278 20.3634 21.428 19.6403C22.9463 18.4414 24.9303 17.7119 27.1056 17.7119C28.1518 17.7119 29.1534 17.8769 30.0847 18.1877C31.1565 16.7034 32.8534 15.7519 34.7672 15.7519C35.7177 15.7519 36.6108 15.9866 37.4082 16.4052C38.4927 15.0478 40.1194 14.1851 41.9375 14.1851C43.5642 14.1851 45.0315 14.8702 46.0968 15.9802C46.6008 15.828 47.1366 15.7519 47.6853 15.7519C49.6756 15.7519 51.4427 16.7858 52.5144 18.378C53.0694 18.1179 53.6946 17.972 54.358 17.972C56.3739 17.972 58.0453 19.2978 58.3451 21.0295C60.4439 21.1563 62.1025 22.7231 62.1025 24.6388C62.1025 24.8672 62.077 25.0828 62.0323 25.2985C63.876 25.6284 65.2603 27.0937 65.2603 28.8507C65.2603 29.2504 65.1837 29.6373 65.0498 29.9925C63.3784 29.1996 61.3561 29.1679 59.7485 29.9672C58.0516 30.8045 57.0054 32.441 56.8013 34.566C56.7311 35.2638 57.2478 35.8854 57.9496 35.9489C57.9942 35.9489 58.0325 35.9489 58.0708 35.9489C58.7215 35.9489 59.2765 35.4605 59.3403 34.8007C59.4615 33.5448 59.9846 32.6757 60.8841 32.2317C61.8729 31.7433 63.2699 31.8257 64.2715 32.441C64.4756 32.5679 64.7116 32.625 64.9349 32.625C66.6127 34.0966 67.678 36.3358 67.678 38.8414C67.678 41.5881 66.3894 44.0175 64.431 45.4701L64.4373 45.4765Z" fill="#032859"/>
<path d="M57.7392 25.4317C56.2592 23.7381 54.4411 22.609 52.5464 22.1332C52.5464 21.1056 52.2338 20.1605 51.6342 19.4183C50.8431 18.4541 49.6566 17.9467 48.2276 17.9911C47.5259 18.0164 46.9709 18.6 46.9964 19.2978C47.0219 19.9829 47.5833 20.5284 48.2723 20.5284C48.285 20.5284 48.2978 20.5284 48.3169 20.5284C48.9229 20.503 49.3759 20.6743 49.6566 21.0168C49.8416 21.2388 49.9436 21.5433 49.9819 21.8858C48.0298 22.0254 46.333 22.9071 45.459 24.2519C45.0762 24.8418 45.2421 25.622 45.829 26.009C46.4223 26.3896 47.2069 26.2246 47.5961 25.6411C48.0362 24.9687 49.0314 24.4993 50.1861 24.4168C52.1509 24.2899 54.2114 25.2605 55.819 27.1C56.0742 27.3855 56.425 27.5377 56.7823 27.5377C57.0757 27.5377 57.3755 27.4362 57.618 27.2269C58.1474 26.7702 58.2048 25.9646 57.7455 25.4381L57.7392 25.4317Z" fill="#032859"/>
<path d="M94.819 82V74.317H97.198C97.64 74.317 97.9953 74.421 98.264 74.629C98.5327 74.8283 98.667 75.149 98.667 75.591V77.008C98.667 77.3027 98.6237 77.58 98.537 77.84C98.4503 78.0913 98.29 78.295 98.056 78.451C97.822 78.607 97.484 78.685 97.042 78.685H95.664V82H94.819ZM95.664 78.204H96.795C97.1417 78.204 97.4017 78.1 97.575 77.892C97.757 77.6753 97.848 77.346 97.848 76.904V75.903C97.848 75.5217 97.7657 75.2443 97.601 75.071C97.4363 74.889 97.237 74.798 97.003 74.798H95.664V78.204ZM105.956 82.091C105.566 82.091 105.228 82.0217 104.942 81.883C104.665 81.7443 104.448 81.5147 104.292 81.194C104.136 80.8647 104.058 80.4097 104.058 79.829V79.4C104.197 79.4 104.336 79.4 104.474 79.4C104.622 79.4 104.76 79.4 104.89 79.4V79.881C104.89 80.3143 104.934 80.6523 105.02 80.895C105.116 81.129 105.241 81.2937 105.397 81.389C105.562 81.4843 105.748 81.532 105.956 81.532C106.294 81.532 106.567 81.428 106.775 81.22C106.992 81.0033 107.1 80.622 107.1 80.076C107.1 79.686 107.044 79.3957 106.931 79.205C106.819 79.0057 106.645 78.8497 106.411 78.737C106.177 78.6157 105.891 78.4857 105.553 78.347C105.276 78.2343 105.025 78.1 104.799 77.944C104.583 77.7793 104.414 77.567 104.292 77.307C104.171 77.047 104.11 76.7177 104.11 76.319C104.11 75.8683 104.171 75.4957 104.292 75.201C104.414 74.8977 104.613 74.6723 104.89 74.525C105.168 74.3777 105.536 74.304 105.995 74.304C106.593 74.304 107.053 74.4557 107.373 74.759C107.703 75.0537 107.867 75.474 107.867 76.02V76.865C107.737 76.865 107.603 76.865 107.464 76.865C107.334 76.865 107.2 76.865 107.061 76.865V76.215C107.061 75.799 106.97 75.487 106.788 75.279C106.615 75.0623 106.355 74.954 106.008 74.954C105.627 74.954 105.35 75.0667 105.176 75.292C105.012 75.5087 104.929 75.8423 104.929 76.293C104.929 76.631 104.994 76.8997 105.124 77.099C105.254 77.2897 105.423 77.4413 105.631 77.554C105.839 77.658 106.06 77.7533 106.294 77.84C106.684 77.9873 107.001 78.1433 107.243 78.308C107.486 78.464 107.664 78.6677 107.776 78.919C107.889 79.1703 107.945 79.5213 107.945 79.972C107.945 80.5007 107.859 80.921 107.685 81.233C107.521 81.5363 107.287 81.7573 106.983 81.896C106.689 82.026 106.346 82.091 105.956 82.091ZM113.809 82V74.317H114.628V82H113.809ZM122.629 82.156C122.248 82.156 121.91 82.1127 121.615 82.026C121.329 81.9393 121.099 81.7617 120.926 81.493C120.761 81.2157 120.679 80.7997 120.679 80.245V75.916C120.679 75.4307 120.761 75.0667 120.926 74.824C121.099 74.5813 121.333 74.421 121.628 74.343C121.931 74.2563 122.269 74.213 122.642 74.213C123.023 74.213 123.357 74.2563 123.643 74.343C123.929 74.4297 124.154 74.5943 124.319 74.837C124.484 75.0797 124.566 75.4393 124.566 75.916V77.268H123.747V75.903C123.747 75.565 123.699 75.3137 123.604 75.149C123.509 74.9757 123.374 74.863 123.201 74.811C123.036 74.759 122.846 74.733 122.629 74.733C122.412 74.733 122.217 74.759 122.044 74.811C121.879 74.863 121.749 74.9757 121.654 75.149C121.567 75.3137 121.524 75.565 121.524 75.903V80.466C121.524 80.8127 121.567 81.0727 121.654 81.246C121.749 81.4107 121.879 81.519 122.044 81.571C122.217 81.623 122.412 81.649 122.629 81.649C122.854 81.649 123.049 81.623 123.214 81.571C123.379 81.519 123.509 81.4107 123.604 81.246C123.699 81.0727 123.747 80.8127 123.747 80.466V79.309H124.566V80.232C124.566 80.7953 124.484 81.2157 124.319 81.493C124.154 81.7617 123.929 81.9393 123.643 82.026C123.357 82.1127 123.019 82.156 122.629 82.156ZM132.345 82.156C131.973 82.156 131.643 82.1127 131.357 82.026C131.071 81.9393 130.842 81.7617 130.668 81.493C130.504 81.2157 130.421 80.7997 130.421 80.245V75.916C130.421 75.4307 130.504 75.0667 130.668 74.824C130.842 74.5813 131.076 74.421 131.37 74.343C131.665 74.2563 131.999 74.213 132.371 74.213C132.744 74.213 133.073 74.2563 133.359 74.343C133.654 74.4297 133.884 74.5943 134.048 74.837C134.222 75.0797 134.308 75.4393 134.308 75.916V80.232C134.308 80.7953 134.222 81.2157 134.048 81.493C133.884 81.7617 133.654 81.9393 133.359 82.026C133.073 82.1127 132.735 82.156 132.345 82.156ZM132.358 81.649C132.584 81.649 132.779 81.623 132.943 81.571C133.117 81.5103 133.251 81.3977 133.346 81.233C133.442 81.0597 133.489 80.804 133.489 80.466V75.916C133.489 75.578 133.442 75.3267 133.346 75.162C133.251 74.9887 133.117 74.876 132.943 74.824C132.77 74.7633 132.575 74.733 132.358 74.733C132.133 74.733 131.934 74.7633 131.76 74.824C131.596 74.876 131.466 74.9887 131.37 75.162C131.275 75.3267 131.227 75.578 131.227 75.916V80.466C131.227 80.804 131.275 81.0597 131.37 81.233C131.466 81.3977 131.596 81.5103 131.76 81.571C131.934 81.623 132.133 81.649 132.358 81.649ZM140.382 82V74.317H141.188V81.415H143.333V82H140.382ZM150.586 82.156C150.213 82.156 149.884 82.1127 149.598 82.026C149.312 81.9393 149.082 81.7617 148.909 81.493C148.744 81.2157 148.662 80.7997 148.662 80.245V75.916C148.662 75.4307 148.744 75.0667 148.909 74.824C149.082 74.5813 149.316 74.421 149.611 74.343C149.906 74.2563 150.239 74.213 150.612 74.213C150.985 74.213 151.314 74.2563 151.6 74.343C151.895 74.4297 152.124 74.5943 152.289 74.837C152.462 75.0797 152.549 75.4393 152.549 75.916V80.232C152.549 80.7953 152.462 81.2157 152.289 81.493C152.124 81.7617 151.895 81.9393 151.6 82.026C151.314 82.1127 150.976 82.156 150.586 82.156ZM150.599 81.649C150.824 81.649 151.019 81.623 151.184 81.571C151.357 81.5103 151.492 81.3977 151.587 81.233C151.682 81.0597 151.73 80.804 151.73 80.466V75.916C151.73 75.578 151.682 75.3267 151.587 75.162C151.492 74.9887 151.357 74.876 151.184 74.824C151.011 74.7633 150.816 74.733 150.599 74.733C150.374 74.733 150.174 74.7633 150.001 74.824C149.836 74.876 149.706 74.9887 149.611 75.162C149.516 75.3267 149.468 75.578 149.468 75.916V80.466C149.468 80.804 149.516 81.0597 149.611 81.233C149.706 81.3977 149.836 81.5103 150.001 81.571C150.174 81.623 150.374 81.649 150.599 81.649ZM160.222 82.143C159.91 82.143 159.624 82.0997 159.364 82.013C159.104 81.935 158.892 81.766 158.727 81.506C158.571 81.246 158.493 80.856 158.493 80.336V75.929C158.493 75.4437 158.575 75.0797 158.74 74.837C158.913 74.5943 159.143 74.4297 159.429 74.343C159.724 74.2563 160.062 74.213 160.443 74.213C160.824 74.213 161.158 74.2607 161.444 74.356C161.739 74.4427 161.968 74.6073 162.133 74.85C162.298 75.0927 162.38 75.4523 162.38 75.929V76.904H161.587V75.916C161.587 75.5693 161.535 75.3137 161.431 75.149C161.336 74.9843 161.201 74.876 161.028 74.824C160.863 74.7633 160.668 74.733 160.443 74.733C160.226 74.733 160.031 74.7633 159.858 74.824C159.685 74.876 159.55 74.9843 159.455 75.149C159.36 75.3137 159.312 75.5693 159.312 75.916V80.466C159.312 80.8127 159.36 81.0727 159.455 81.246C159.55 81.4107 159.685 81.519 159.858 81.571C160.031 81.623 160.226 81.649 160.443 81.649C160.781 81.649 161.054 81.5493 161.262 81.35C161.479 81.142 161.587 80.8473 161.587 80.466V78.867H160.586V78.36H162.38V82H161.769L161.73 81.259C161.704 81.3197 161.669 81.3803 161.626 81.441C161.591 81.493 161.561 81.5407 161.535 81.584C161.414 81.7573 161.245 81.896 161.028 82C160.82 82.0953 160.551 82.143 160.222 82.143ZM168.404 82V74.317H169.223V82H168.404ZM174.78 82L176.483 74.317H177.536L179.213 82H178.329L177.913 80.219H176.028L175.638 82H174.78ZM176.054 79.764H177.9L176.99 75.318L176.054 79.764ZM191.727 82V74.317H192.546V82H191.727ZM198.728 82V74.317H199.443L201.848 80.323V74.317H202.589V82H201.848L199.469 76.215V82H198.728ZM210.556 82.156C210.183 82.156 209.854 82.1127 209.568 82.026C209.282 81.9393 209.052 81.7617 208.879 81.493C208.714 81.2157 208.632 80.7997 208.632 80.245V75.916C208.632 75.4307 208.714 75.0667 208.879 74.824C209.052 74.5813 209.286 74.421 209.581 74.343C209.876 74.2563 210.209 74.213 210.582 74.213C210.955 74.213 211.284 74.2563 211.57 74.343C211.865 74.4297 212.094 74.5943 212.259 74.837C212.432 75.0797 212.519 75.4393 212.519 75.916V80.232C212.519 80.7953 212.432 81.2157 212.259 81.493C212.094 81.7617 211.865 81.9393 211.57 82.026C211.284 82.1127 210.946 82.156 210.556 82.156ZM210.569 81.649C210.794 81.649 210.989 81.623 211.154 81.571C211.327 81.5103 211.462 81.3977 211.557 81.233C211.652 81.0597 211.7 80.804 211.7 80.466V75.916C211.7 75.578 211.652 75.3267 211.557 75.162C211.462 74.9887 211.327 74.876 211.154 74.824C210.981 74.7633 210.786 74.733 210.569 74.733C210.344 74.733 210.144 74.7633 209.971 74.824C209.806 74.876 209.676 74.9887 209.581 75.162C209.486 75.3267 209.438 75.578 209.438 75.916V80.466C209.438 80.804 209.486 81.0597 209.581 81.233C209.676 81.3977 209.806 81.5103 209.971 81.571C210.144 81.623 210.344 81.649 210.569 81.649ZM219.375 82L217.945 74.317H218.764L219.934 80.934H219.895L221.065 74.317H221.871L220.415 82H219.375ZM226.467 82L228.17 74.317H229.223L230.9 82H230.016L229.6 80.219H227.715L227.325 82H226.467ZM227.741 79.764H229.587L228.677 75.318L227.741 79.764ZM236.466 82V74.317H238.767C239.096 74.317 239.378 74.3647 239.612 74.46C239.854 74.5553 240.036 74.72 240.158 74.954C240.288 75.1793 240.353 75.4913 240.353 75.89V80.323C240.353 80.765 240.283 81.1073 240.145 81.35C240.006 81.5927 239.807 81.7617 239.547 81.857C239.295 81.9523 239.001 82 238.663 82H236.466ZM237.311 81.532H238.559C238.853 81.532 239.087 81.454 239.261 81.298C239.443 81.1333 239.534 80.8213 239.534 80.362V75.994C239.534 75.5347 239.443 75.2227 239.261 75.058C239.087 74.8933 238.853 74.811 238.559 74.811H237.311V81.532ZM245.8 82L247.503 74.317H248.556L250.233 82H249.349L248.933 80.219H247.048L246.658 82H245.8ZM247.074 79.764H248.92L248.01 75.318L247.074 79.764ZM256.123 82.091C255.984 82.091 255.867 82.0433 255.772 81.948C255.677 81.8527 255.629 81.74 255.629 81.61C255.629 81.48 255.677 81.3673 255.772 81.272C255.867 81.1767 255.984 81.129 256.123 81.129C256.262 81.129 256.379 81.1767 256.474 81.272C256.578 81.3673 256.63 81.48 256.63 81.61C256.63 81.74 256.578 81.8527 256.474 81.948C256.379 82.0433 256.262 82.091 256.123 82.091Z" fill="black"/>
<path d="M138.32 42.58C138.32 37.02 136.54 34.24 132.98 34.24C129.94 34.24 127.06 36.34 124.34 40.54V60.94L129.2 61.84C129.36 62.48 129.36 63.28 129.2 64.24C126.68 64.12 124.12 64.06 121.52 64.06C119.68 64.06 117.08 64.1 113.72 64.18C113.48 63.42 113.48 62.64 113.72 61.84L118.46 61.18C118.62 58.98 118.7 56.44 118.7 53.56V42.58C118.7 37.02 116.92 34.24 113.36 34.24C111.56 34.24 109.98 34.8 108.62 35.92C107.26 37 105.86 38.7 104.42 41.02V60.94L109.28 61.84C109.44 62.48 109.44 63.28 109.28 64.24C106.76 64.12 104.2 64.06 101.6 64.06C99.76 64.06 97.16 64.1 93.8 64.18C93.56 63.42 93.56 62.64 93.8 61.84L98.54 61.18C98.7 58.98 98.78 56.44 98.78 53.56V37.12C98.78 36.32 98.72 35.58 98.6 34.9L93.86 34.3C93.7 33.7 93.7 32.94 93.86 32.02C96.54 31.82 99.96 31.4 104.12 30.76C104.48 31.16 104.68 31.56 104.72 31.96C104.52 33 104.42 34.78 104.42 37.3C107.58 32.94 111.14 30.76 115.1 30.76C117.18 30.76 119.08 31.3 120.8 32.38C122.52 33.42 123.62 35.04 124.1 37.24C127.3 32.92 130.84 30.76 134.72 30.76C137.16 30.76 139.3 31.48 141.14 32.92C143.02 34.36 143.96 36.58 143.96 39.58V60.94L148.82 61.84C148.98 62.48 148.98 63.28 148.82 64.24C146.3 64.12 143.74 64.06 141.14 64.06C139.3 64.06 136.7 64.1 133.34 64.18C133.1 63.42 133.1 62.64 133.34 61.84L138.08 61.18C138.24 58.98 138.32 56.44 138.32 53.56V42.58ZM177.316 47.08H158.476C158.116 57.28 161.176 62.38 167.656 62.38C170.416 62.38 173.236 61.16 176.116 58.72C176.716 59.08 177.176 59.7 177.496 60.58C174.736 63.66 171.236 65.2 166.996 65.2C157.236 65.2 152.356 59.46 152.356 47.98C152.356 42.54 153.796 38.32 156.676 35.32C159.556 32.28 162.916 30.76 166.756 30.76C170.956 30.76 173.976 32.22 175.816 35.14C177.656 38.06 178.576 41.86 178.576 46.54C178.176 46.86 177.756 47.04 177.316 47.08ZM166.636 33.16C164.556 33.16 162.776 34.24 161.296 36.4C159.856 38.56 158.976 41.32 158.656 44.68H166.096C169.056 44.68 171.176 44.5 172.456 44.14C172.456 40.86 171.956 38.22 170.956 36.22C169.956 34.18 168.516 33.16 166.636 33.16ZM207.94 42.58C207.94 39.5 207.52 37.34 206.68 36.1C205.88 34.86 204.52 34.24 202.6 34.24C199.64 34.24 196.66 36.46 193.66 40.9V60.94L198.52 61.84C198.68 62.48 198.68 63.28 198.52 64.24C196 64.12 193.42 64.06 190.78 64.06C188.94 64.06 186.34 64.1 182.98 64.18C182.74 63.42 182.74 62.64 182.98 61.84L187.72 61.18C187.88 58.98 187.96 56.44 187.96 53.56V37.12C187.96 36.32 187.9 35.58 187.78 34.9L183.04 34.3C182.88 33.7 182.88 32.94 183.04 32.02C185.8 31.82 189.24 31.4 193.36 30.76C193.72 31.16 193.92 31.56 193.96 31.96C193.76 33 193.66 34.78 193.66 37.3C196.82 32.94 200.38 30.76 204.34 30.76C210.54 30.76 213.64 33.7 213.64 39.58V60.94L218.5 61.84C218.66 62.48 218.66 63.28 218.5 64.24C215.98 64.12 213.4 64.06 210.76 64.06C208.92 64.06 206.32 64.1 202.96 64.18C202.72 63.42 202.72 62.64 202.96 61.84L207.7 61.18C207.86 58.98 207.94 56.44 207.94 53.56V42.58ZM230.783 24.76V33.34H239.243C239.323 33.82 239.363 34.18 239.363 34.42C239.363 34.78 239.323 35.2 239.243 35.68L230.783 36.94V53.44C230.783 56.4 231.043 58.5 231.563 59.74C232.123 60.94 232.983 61.54 234.143 61.54C235.183 61.54 236.803 61.12 239.003 60.28C239.403 60.64 239.683 61.32 239.843 62.32C238.643 63.04 237.723 63.58 237.083 63.94C236.483 64.26 235.703 64.54 234.743 64.78C233.823 65.06 232.843 65.2 231.803 65.2C229.803 65.2 228.163 64.44 226.883 62.92C225.643 61.36 225.023 59 225.023 55.84V36.22L220.823 35.68C220.743 35.28 220.703 34.94 220.703 34.66C220.703 34.34 220.743 33.9 220.823 33.34C221.943 33.14 222.903 32.8 223.703 32.32C224.543 31.8 225.243 31.1 225.803 30.22C226.363 29.3 226.783 28.5 227.063 27.82C227.383 27.1 227.763 26.08 228.203 24.76C228.563 24.64 229.003 24.58 229.523 24.58C230.003 24.58 230.423 24.64 230.783 24.76ZM253.25 41.68V60.94L258.11 61.84C258.15 62.04 258.17 62.22 258.17 62.38C258.21 62.54 258.23 62.72 258.23 62.92C258.23 63.12 258.21 63.34 258.17 63.58C258.17 63.78 258.15 64 258.11 64.24C255.59 64.12 253.01 64.06 250.37 64.06C249.45 64.06 248.33 64.06 247.01 64.06C245.73 64.1 244.25 64.14 242.57 64.18C242.45 63.82 242.39 63.44 242.39 63.04C242.39 62.68 242.45 62.28 242.57 61.84L247.31 61.18C247.39 60.06 247.45 58.88 247.49 57.64C247.53 56.36 247.55 55 247.55 53.56V40.78C247.55 38.14 247.49 36.18 247.37 34.9L242.63 34.3C242.55 34.1 242.51 33.76 242.51 33.28C242.51 33.08 242.51 32.88 242.51 32.68C242.51 32.48 242.55 32.26 242.63 32.02C245.35 31.86 248.79 31.44 252.95 30.76C253.31 31.16 253.51 31.56 253.55 31.96C253.35 33.08 253.25 36.32 253.25 41.68ZM244.49 20.26C244.41 20.06 244.37 19.86 244.37 19.66C244.37 19.42 244.37 19.2 244.37 19C244.37 17.92 244.81 17.06 245.69 16.42C246.61 15.74 247.73 15.4 249.05 15.4C250.29 15.4 251.29 15.78 252.05 16.54C252.85 17.26 253.25 18.26 253.25 19.54C253.25 20.58 252.79 21.42 251.87 22.06C250.99 22.7 249.85 23.02 248.45 23.02C247.49 23.02 246.63 22.78 245.87 22.3C245.15 21.82 244.69 21.14 244.49 20.26ZM272.664 62.56C274.824 62.56 276.424 62.06 277.464 61.06C278.504 60.06 279.024 58.9 279.024 57.58C279.024 56.82 278.904 56.12 278.664 55.48C278.424 54.84 278.024 54.22 277.464 53.62C276.944 53.02 276.244 52.44 275.364 51.88C274.484 51.28 273.384 50.64 272.064 49.96C270.424 49.12 269.004 48.32 267.804 47.56C266.644 46.8 265.684 46 264.924 45.16C264.164 44.32 263.584 43.42 263.184 42.46C262.824 41.5 262.644 40.42 262.644 39.22C262.644 37.78 262.904 36.54 263.424 35.5C263.944 34.42 264.664 33.54 265.584 32.86C266.544 32.14 267.664 31.62 268.944 31.3C270.224 30.94 271.644 30.76 273.204 30.76C276.324 30.76 279.364 31.52 282.324 33.04V40.72H279.504L278.184 34.24C276.424 33.4 274.564 32.98 272.604 32.98C269.324 32.98 267.684 34.32 267.684 37C267.684 38.44 268.224 39.76 269.304 40.96C270.384 42.16 272.124 43.36 274.524 44.56C276.164 45.4 277.604 46.2 278.844 46.96C280.084 47.72 281.104 48.52 281.904 49.36C282.744 50.2 283.364 51.12 283.764 52.12C284.204 53.08 284.424 54.18 284.424 55.42C284.424 56.82 284.124 58.12 283.524 59.32C282.924 60.52 282.084 61.56 281.004 62.44C279.924 63.28 278.624 63.94 277.104 64.42C275.584 64.94 273.904 65.2 272.064 65.2C268.504 65.2 265.164 64.44 262.044 62.92V55.24H264.864L266.184 61.18C268.224 62.1 270.384 62.56 272.664 62.56Z" fill="#032859"/>
</svg>
