<svg width="503" height="502" viewBox="0 0 503 502" fill="none" xmlns="http://www.w3.org/2000/svg">
<path d="M502.281 141.75V360.328C502.281 438.488 438.91 501.859 360.75 501.859H142.172C64 501.859 0.628906 438.488 0.628906 360.328V141.75C0.628906 63.5781 64 0.210938 142.172 0.210938H360.75C438.91 0.210938 502.281 63.5781 502.281 141.75Z" fill="#81A6D4"/>
<path d="M246.449 271.719L235.34 255.461L149.039 129.199H185.621L255.988 231.219L267.141 247.391L353.699 372.871H315.59L246.449 271.719ZM278.988 233.449L267.852 217.301L194.898 111.531H115.559L223.469 269.398L234.59 285.672L306.27 390.539H387.352L278.988 233.449Z" fill="#032859"/>
<path d="M235.34 255.461L246.449 271.719L234.59 285.672L145.43 390.539H120.27L223.469 269.398L235.34 255.461Z" fill="#032859"/>
<path d="M382.648 111.531L278.988 233.449L267.141 247.391L255.988 231.219L267.852 217.301L357.949 111.531H382.648Z" fill="#032859"/>
</svg>
