<svg width="44" height="44" viewBox="0 0 44 44" fill="none" xmlns="http://www.w3.org/2000/svg">
<path d="M6.76672 7.05823L6.76675 7.05821C10.5672 3.25716 15.8165 0.907471 21.6157 0.907471C27.4142 0.907471 32.6638 3.25716 36.4646 7.05822L36.4646 7.05825C40.2657 10.859 42.6154 16.1086 42.6154 21.9072C42.6154 27.7063 40.2657 32.9556 36.4646 36.7561L36.4646 36.7561C32.6638 40.557 27.4142 42.9075 21.6157 42.9075C15.8166 42.9075 10.5673 40.557 6.76673 36.7561L6.76671 36.7561C2.9659 32.9556 0.615387 27.7063 0.615387 21.9072C0.615387 16.1087 2.96589 10.8591 6.76672 7.05823Z" fill="#F7F7F7" stroke="#032859"/>
<path d="M23.0383 18.8174L29.5868 11.019H29.5881H29.5933H29.5985H29.6037H29.6089H29.6141H29.6193H29.6245H29.6297H29.6349H29.6401H29.6453H29.6505H29.6557H29.6609H29.6661H29.6714H29.6766H29.6818H29.687H29.6922H29.6974H29.7026H29.7078H29.713H29.7182H29.7234H29.7286H29.7338H29.739H29.7442H29.7494H29.7546H29.7598H29.765H29.7703H29.7755H29.7807H29.7859H29.7911H29.7963H29.8015H29.8067H29.8119H29.8171H29.8223H29.8275H29.8327H29.8379H29.8431H29.8483H29.8535H29.8587H29.8639H29.8691H29.8744H29.8796H29.8848H29.89H29.8952H29.9004H29.9056H29.9108H29.916H29.9212H29.9264H29.9316H29.9368H29.942H29.9472H29.9524H29.9576H29.9628H29.968H29.9732H29.9784H29.9837H29.9889H29.9941H29.9993H30.0045H30.0097H30.0149H30.0201H30.0253H30.0305H30.0357H30.0409H30.0461H30.0513H30.0565H30.0617H30.0669H30.0721H30.0773H30.0825H30.0877H30.0929H30.0981H30.1033H30.1086H30.1138H30.119H30.1242H30.1294H30.1346H30.1398H30.145H30.1502H30.1554H30.1606H30.1658H30.171H30.1762H30.1814H30.1866H30.1918H30.197H30.2022H30.2074H30.2126H30.2178H30.223H30.2283H30.2335H30.2387H30.2439H30.2491H30.2543H30.2595H30.2647H30.2699H30.2751H30.2803H30.2855H30.2907H30.2959H30.3011H30.3063H30.3115H30.3167H30.3219H30.3271H30.3323H30.3375H30.3427H30.3479H30.3531H30.3583H30.3636H30.3688H30.374H30.3792H30.3844H30.3896H30.3948H30.4H30.4052H30.4104H30.4156H30.4208H30.426H30.4312H30.4364H30.4416H30.4468H30.452H30.4572H30.4624H30.4676H30.4728H30.478H30.4832H30.4884H30.4936H30.4988H30.5041H30.5093H30.5145H30.5197H30.5249H30.5301H30.5353H30.5405H30.5457H30.5509H30.5561H30.5613H30.5665H30.5717H30.5769H30.5821H30.5873H30.5925H30.5977H30.6029H30.6081H30.6133H30.6185H30.6237H30.6289H30.6341H30.6393H30.6445H30.6498H30.655H30.6602H30.6654H30.6706H30.6758H30.681H30.6862H30.6914H30.6966H30.7018H30.707H30.7122H30.7174H30.7226H30.7278H30.733H30.7382H30.7434H30.7486H30.7538H30.759H30.7642H30.7694H30.7746H30.7798H30.785H30.7902H30.7955H30.8007H30.8059H30.8111H30.8163H30.8215H30.8267H30.8319H30.8371H30.8423H30.8475H30.8527H30.8579H30.8631H30.8683H30.8735H30.8787H30.8839H30.8891H30.8943H30.8995H30.9047H30.9099H30.9151H30.9203H30.9255H30.9307H30.9359H30.9411H30.9455L23.5426 19.8342L23.2848 20.1412L23.5284 20.4596L32.9656 32.7954H26.9246L20.5031 24.4014L20.1242 23.9061L19.7231 24.3837L12.659 32.7954H12.6578H12.6526H12.6474H12.6422H12.637H12.6318H12.6266H12.6214H12.6162H12.611H12.6058H12.6005H12.5953H12.5901H12.5849H12.5797H12.5745H12.5693H12.5641H12.5589H12.5537H12.5485H12.5433H12.5381H12.5329H12.5277H12.5225H12.5173H12.5121H12.5069H12.5017H12.4964H12.4912H12.486H12.4808H12.4756H12.4704H12.4652H12.46H12.4548H12.4496H12.4444H12.4392H12.434H12.4288H12.4236H12.4184H12.4132H12.408H12.4028H12.3975H12.3923H12.3871H12.3819H12.3767H12.3715H12.3663H12.3611H12.3559H12.3507H12.3455H12.3403H12.3351H12.3299H12.3247H12.3195H12.3143H12.3091H12.3039H12.2987H12.2934H12.2882H12.283H12.2778H12.2726H12.2674H12.2622H12.257H12.2518H12.2466H12.2414H12.2362H12.231H12.2258H12.2206H12.2154H12.2102H12.205H12.1998H12.1945H12.1893H12.1841H12.1789H12.1737H12.1685H12.1633H12.1581H12.1529H12.1477H12.1425H12.1373H12.1321H12.1269H12.1217H12.1165H12.1113H12.1061H12.1009H12.0957H12.0904H12.0852H12.08H12.0748H12.0696H12.0644H12.0592H12.054H12.0488H12.0436H12.0384H12.0332H12.028H12.0228H12.0176H12.0124H12.0072H12.002H11.9968H11.9915H11.9863H11.9811H11.9759H11.9707H11.9655H11.9603H11.9551H11.9499H11.9447H11.9395H11.9343H11.9291H11.9239H11.9187H11.9135H11.9083H11.9031H11.8979H11.8927H11.8874H11.8822H11.877H11.8718H11.8666H11.8614H11.8562H11.851H11.8458H11.8406H11.8354H11.8302H11.825H11.8198H11.8146H11.8094H11.8042H11.799H11.7938H11.7886H11.7833H11.7781H11.7729H11.7677H11.7625H11.7573H11.7521H11.7469H11.7417H11.7365H11.7313H11.7261H11.7209H11.7157H11.7105H11.7053H11.7001H11.6949H11.6897H11.6845H11.6792H11.674H11.6688H11.6636H11.6584H11.6532H11.648H11.6428H11.6376H11.6324H11.6272H11.622H11.6168H11.6116H11.6064H11.6012H11.596H11.5908H11.5856H11.5804H11.5752H11.5699H11.5647H11.5595H11.5543H11.5491H11.5439H11.5387H11.5335H11.5283H11.5231H11.5179H11.5127H11.5075H11.5023H11.4971H11.4919H11.4867H11.4815H11.4763H11.4711H11.4659H11.4606H11.4554H11.4502H11.445H11.4398H11.4346H11.4294H11.4242H11.419H11.4138H11.4086H11.4034H11.3982H11.393H11.3878H11.3826H11.3774H11.3722H11.367H11.3618H11.3566H11.3514H11.3461H11.3409H11.3357H11.3305H11.3253H11.3201H11.3149H11.3097H11.3045H11.3003L19.2188 23.366L19.4766 23.059L19.233 22.7406L10.2652 11.019H16.3062L22.2582 18.7996L22.6372 19.295L23.0383 18.8174ZM13.3295 12.0331H12.3174L12.9323 12.8369L27.2757 31.5851L27.4258 31.7813H27.6728H29.9013H30.9134L30.2984 30.9775L15.9554 12.2293L15.8053 12.0331H15.5583H13.3295Z" fill="#032859" stroke="#032859"/>
</svg>
